<?xml version="1.0" encoding="UTF-8" standalone="no"?>
<!DOCTYPE svg PUBLIC "-//W3C//DTD SVG 1.1//EN" "http://www.w3.org/Graphics/SVG/1.1/DTD/svg11.dtd">
<svg width="100%" height="100%" viewBox="0 0 4267 4267" version="1.1" xmlns="http://www.w3.org/2000/svg" xmlns:xlink="http://www.w3.org/1999/xlink" xml:space="preserve" xmlns:serif="http://www.serif.com/" style="fill-rule:evenodd;clip-rule:evenodd;stroke-miterlimit:10;">
    <g id="Page-2" serif:id="Page 2" transform="matrix(4.166667,0,0,4.166667,0,0)">
        <rect x="0" y="0" width="1024" height="1024" style="fill:none;"/>
        <g id="icon">
            <g transform="matrix(1024,0,0,-1024,0.000001,512)">
                <rect x="-0" y="-0.5" width="1" height="1" style="fill:url(#_Linear1);"/>
            </g>
            <g transform="matrix(0,1,1,0,511.9999,184.202)">
                <path d="M369.169,-369.169C495.434,-369.169 597.793,-203.886 597.793,0C597.793,203.886 495.434,369.169 369.169,369.169C242.904,369.169 140.545,203.887 140.545,0C140.545,-203.886 242.904,-369.169 369.169,-369.169" style="fill:rgb(17,55,120);fill-rule:nonzero;"/>
            </g>
            <g transform="matrix(0,1,1,0,512,-10.6422)">
                <path d="M369.169,-369.169C491.385,-369.169 590.461,-203.886 590.461,0C590.461,203.886 491.385,369.169 369.169,369.169C246.953,369.169 147.877,203.887 147.877,0C147.877,-203.886 246.953,-369.169 369.169,-369.169" style="fill:rgb(192,200,220);fill-rule:nonzero;"/>
            </g>
            <g transform="matrix(0,1,1,0,512.0005,129.5858)">
                <path d="M208.375,-208.376C274.187,-208.376 327.538,-115.083 327.538,-0.001C327.538,115.082 274.187,208.375 208.375,208.375C142.563,208.375 89.213,115.082 89.213,-0.001C89.213,-115.083 142.563,-208.376 208.375,-208.376" style="fill:rgb(41,54,99);fill-rule:nonzero;"/>
            </g>
            <g transform="matrix(0,1,1,0,511.9999,200.7362)">
                <path d="M131.093,-131.093C170.355,-131.093 202.183,-72.401 202.183,0C202.183,72.401 170.355,131.093 131.093,131.093C91.831,131.093 60.003,72.401 60.003,0C60.003,-72.401 91.831,-131.093 131.093,-131.093" style="fill:rgb(234,240,254);fill-rule:nonzero;"/>
            </g>
            <g transform="matrix(0,-1,-1,0,511.9998,253.8231)">
                <path d="M-113.551,-113.551C-134.799,-90.884 -149.096,-48.522 -149.096,0C-149.096,48.522 -134.799,90.884 -113.551,113.551C-92.303,90.884 -78.006,48.522 -78.006,0C-78.006,-48.522 -92.303,-90.884 -113.551,-113.551" style="fill:rgb(17,55,120);fill-rule:nonzero;"/>
            </g>
            <g transform="matrix(-664.067139,0,0,664.067139,849.796692,592.437507)">
                <path d="M0.509,-0.019C0.734,-0.019 0.929,-0.1 1.016,-0.216L1.016,-0.088C1.016,0.079 0.789,0.216 0.509,0.216C0.229,0.216 0.002,0.079 0.002,-0.088L0.002,-0.216C0.089,-0.1 0.283,-0.019 0.509,-0.019Z" style="fill:url(#_Linear2);fill-rule:nonzero;"/>
            </g>
            <g transform="matrix(1,0,0,1,246.0816,651.3243)">
                <path d="M0,-29.597C72.714,23.081 167.152,52.093 265.919,52.093C364.687,52.093 459.127,23.081 531.839,-29.599C558.351,-48.806 581.29,-70.463 600.431,-94.11C598.481,-84.024 595.292,-74.167 590.955,-64.591C575.507,-48.455 558.222,-33.375 539.126,-19.541C464.311,34.663 367.284,64.514 265.919,64.514C164.556,64.514 67.53,34.663 -7.287,-19.539C-26.384,-33.374 -43.67,-48.455 -59.119,-64.592C-63.455,-74.168 -66.644,-84.026 -68.595,-94.111C-49.453,-70.463 -26.513,-48.805 0,-29.597" style="fill:rgb(20,26,48);fill-rule:nonzero;"/>
            </g>
            <g transform="matrix(1,0,0,1,247.6083,616.2359)">
                <path d="M0,-22.446C71.944,26.475 165.841,53.416 264.392,53.416C362.946,53.416 456.842,26.473 528.785,-22.448C557.356,-41.875 581.586,-64.018 601.188,-88.282L601.188,-82.52C601.188,-77.658 600.884,-72.84 600.32,-68.065C582.03,-47.702 560.45,-28.958 535.769,-12.175C461.788,38.132 365.411,65.837 264.392,65.837C163.376,65.837 66.998,38.132 -6.985,-12.174C-31.667,-28.956 -53.247,-47.702 -71.537,-68.065C-72.1,-72.84 -72.405,-77.658 -72.405,-82.52L-72.405,-88.283C-52.802,-64.017 -28.572,-41.874 0,-22.446" style="fill:rgb(20,26,48);fill-rule:nonzero;"/>
            </g>
            <g transform="matrix(1,0,0,1,777.5184,566.6559)">
                <path d="M0,9.379C-71.997,55.983 -166.293,81.65 -265.518,81.65C-364.743,81.65 -459.039,55.983 -531.037,9.379C-559.216,-8.862 -583.078,-29.615 -602.315,-52.321L-602.315,-72.271C-582.464,-45.794 -556.283,-21.761 -524.287,-1.049C-454.275,44.27 -362.377,69.229 -265.518,69.229C-168.659,69.229 -76.76,44.27 -6.75,-1.049C25.246,-21.761 51.427,-45.794 71.278,-72.27L71.278,-52.321C52.041,-29.614 28.18,-8.862 0,9.379" style="fill:rgb(20,26,48);fill-rule:nonzero;"/>
            </g>
            <g transform="matrix(1,0,0,1,772.9003,527.4659)">
                <path d="M0,19.675C-70.3,63.139 -162.957,87.075 -260.9,87.075C-358.843,87.075 -451.5,63.139 -521.801,19.675C-552.993,0.39 -578.463,-21.849 -597.697,-46.227L-597.697,-67.4C-578.632,-38.859 -550.882,-12.908 -515.269,9.111C-446.904,51.376 -356.567,74.654 -260.9,74.654C-165.233,74.654 -74.897,51.376 -6.531,9.111C29.081,-12.908 56.831,-38.858 75.896,-67.398L75.896,-46.227C56.662,-21.849 31.191,0.39 0,19.675" style="fill:rgb(20,26,48);fill-rule:nonzero;"/>
            </g>
            <g transform="matrix(1,0,0,1,704.3589,803.0547)">
                <path d="M0,-3.447L0.103,0C0.113,-1.136 0.075,-2.292 0,-3.447ZM-384.821,0L-384.718,-3.447C-384.793,-2.292 -384.83,-1.136 -384.821,0Z" style="fill:none;fill-rule:nonzero;stroke:black;stroke-width:1px;"/>
            </g>
            <g transform="matrix(1,0,0,1,696.4111,349.8079)">
                <path d="M0,450.321L-29.749,-5.289C-31.142,-26.586 -48.949,-43.268 -70.29,-43.268L-298.532,-43.268C-319.868,-43.268 -337.671,-26.586 -339.063,-5.289L-368.812,450.315C-369.561,461.645 -365.693,472.45 -357.927,480.729C-350.173,489.022 -339.645,493.589 -328.281,493.589L-40.541,493.589C-29.184,493.589 -18.652,489.023 -10.889,480.733C-3.13,472.448 0.736,461.648 0,450.321" style="fill:rgb(234,240,254);fill-rule:nonzero;"/>
            </g>
            <g transform="matrix(0,143.910461,143.910461,0,511.999,760.795441)">
                <path d="M0.629,1L0.629,-1C0.629,-1.186 0.478,-1.336 0.294,-1.337L0.547,-1.345C0.732,-1.357 0.913,-1.217 0.913,-1.018L0.913,1.018C0.913,1.217 0.732,1.357 0.547,1.345L0.294,1.337C0.478,1.336 0.629,1.187 0.629,1Z" style="fill:url(#_Linear3);fill-rule:nonzero;"/>
            </g>
            <g transform="matrix(0,544.005432,544.005432,0,512,299.688355)">
                <path d="M-0.002,-0.21C-0.002,-0.257 0.034,-0.296 0.081,-0.299L0.919,-0.354L0.925,-0.354C0.974,-0.353 1.014,-0.314 1.014,-0.264L1.014,0.264C1.014,0.314 0.974,0.353 0.925,0.354L0.919,0.354L0.081,0.299C0.034,0.296 -0.002,0.257 -0.002,0.21L-0.002,-0.21ZM0.08,0.115C0.08,0.125 0.073,0.133 0.064,0.135L0.033,0.142C0.03,0.142 0.027,0.145 0.027,0.149L0.027,0.21C0.027,0.241 0.052,0.268 0.083,0.27L0.921,0.324C0.938,0.325 0.954,0.32 0.966,0.308C0.978,0.296 0.985,0.28 0.985,0.263L0.985,-0.264C0.985,-0.281 0.978,-0.297 0.966,-0.308C0.954,-0.32 0.938,-0.325 0.921,-0.324L0.083,-0.27C0.052,-0.268 0.027,-0.241 0.027,-0.21L0.027,-0.149C0.027,-0.145 0.03,-0.142 0.033,-0.142L0.064,-0.135C0.073,-0.133 0.08,-0.125 0.08,-0.115L0.08,0.115Z" style="fill:url(#_Linear4);fill-rule:nonzero;"/>
            </g>
            <g transform="matrix(0,544.005432,544.005432,0,512,299.688355)">
                <path d="M-0.002,-0.21C-0.002,-0.257 0.034,-0.296 0.081,-0.299L0.919,-0.354L0.925,-0.354C0.974,-0.353 1.014,-0.314 1.014,-0.264L1.014,0.264C1.014,0.314 0.974,0.353 0.925,0.354L0.919,0.354L0.081,0.299C0.034,0.296 -0.002,0.257 -0.002,0.21L-0.002,-0.21ZM0.08,0.115C0.08,0.125 0.073,0.133 0.064,0.135L0.033,0.142C0.03,0.142 0.027,0.145 0.027,0.149L0.027,0.21C0.027,0.241 0.052,0.268 0.083,0.27L0.921,0.324C0.938,0.325 0.954,0.32 0.966,0.308C0.978,0.296 0.985,0.28 0.985,0.263L0.985,-0.264C0.985,-0.281 0.978,-0.297 0.966,-0.308C0.954,-0.32 0.938,-0.325 0.921,-0.324L0.083,-0.27C0.052,-0.268 0.027,-0.241 0.027,-0.21L0.027,-0.149C0.027,-0.145 0.03,-0.142 0.033,-0.142L0.064,-0.135C0.073,-0.133 0.08,-0.125 0.08,-0.115L0.08,0.115Z" style="fill:url(#_Linear5);fill-rule:nonzero;"/>
            </g>
            <g transform="matrix(1,0,0,1,454.7858,502.5095)">
                <path d="M0,106.489L-38.136,106.489C-38.65,118.319 -39.165,130.149 -39.679,141.979L-0.926,141.979C-0.617,130.149 -0.309,118.319 0,106.489M19.382,88.739L38.301,88.739C38.249,94.656 38.198,100.572 38.146,106.489L19.073,106.489C18.764,124.236 18.456,141.982 18.147,159.729L-59.987,159.729C-58.752,136.066 -57.517,112.402 -56.283,88.739L19.382,88.739M3.704,-35.49L-31.963,-35.49C-32.477,-23.66 -32.992,-11.83 -33.506,-0L2.778,-0C3.087,-11.83 3.395,-23.66 3.704,-35.49M20.616,17.75L-52.579,17.75C-51.344,-5.914 -50.11,-29.577 -48.875,-53.24L21.851,-53.24C21.44,-29.577 21.028,-5.914 20.616,17.75M-36.592,70.989L-17.828,70.989C-17.622,65.076 -17.417,59.162 -17.211,53.249L-35.821,53.249C-36.078,59.162 -36.335,65.076 -36.592,70.989M-16.594,35.499C-16.799,41.416 -17.005,47.333 -17.211,53.249L1.389,53.249C1.543,47.333 1.698,41.416 1.852,35.499L-16.594,35.499ZM57.209,35.499L75.665,35.499C75.613,29.583 75.562,23.666 75.511,17.75C75.459,11.833 75.408,5.916 75.356,-0L39.072,-0C39.021,5.916 38.969,11.833 38.918,17.75L57.209,17.75L57.209,35.499M75.202,-17.74C75.151,-23.657 75.099,-29.574 75.048,-35.49L57.209,-35.49L57.209,-53.24L39.535,-53.24C39.432,-41.407 39.329,-29.574 39.226,-17.74L75.202,-17.74M57.209,124.229L57.209,141.979L95.972,141.979C95.869,136.062 95.766,130.146 95.664,124.229L57.209,124.229ZM94.12,35.499C94.223,41.416 94.326,47.333 94.429,53.249L113.039,53.249C112.885,47.333 112.731,41.416 112.576,35.499L94.12,35.499ZM114.428,106.489L95.355,106.489C95.458,112.403 95.561,118.316 95.664,124.229L114.891,124.229C114.737,118.316 114.583,112.403 114.428,106.489M96.281,159.729L174.415,159.729C174.106,153.812 173.798,147.896 173.489,141.979L95.972,141.979C96.075,147.896 96.178,153.812 96.281,159.729M146.391,-35.49L110.724,-35.49C111.033,-23.66 111.341,-11.83 111.65,-0L147.934,-0C147.42,-11.83 146.906,-23.66 146.391,-35.49M163.304,-53.24C164.538,-29.577 165.773,-5.914 167.007,17.75L93.812,17.75C93.4,-5.914 92.989,-29.577 92.577,-53.24L163.304,-53.24ZM151.021,70.989L132.256,70.989C132.051,65.076 131.845,59.162 131.639,53.249L113.039,53.249C113.348,65.079 113.656,76.909 113.965,88.739L151.792,88.739C152.05,94.656 152.307,100.572 152.564,106.489L171.637,106.489C170.403,82.826 169.168,59.163 167.933,35.499L149.478,35.499C149.992,47.329 150.506,59.159 151.021,70.989M94.738,70.989L75.974,70.989C76.025,76.906 76.076,82.823 76.128,88.739L57.209,88.739L57.209,106.489L95.355,106.489C95.252,100.572 95.149,94.656 95.046,88.739C94.943,82.823 94.841,76.906 94.738,70.989M57.209,70.989L57.209,88.739L38.301,88.739C38.352,82.823 38.404,76.906 38.455,70.989L0.926,70.989C1.08,65.076 1.235,59.162 1.389,53.249L19.999,53.249C20.102,47.333 20.205,41.416 20.308,35.499L38.764,35.499C38.712,41.416 38.661,47.333 38.609,53.249L75.819,53.249C75.871,59.162 75.922,65.076 75.974,70.989L57.209,70.989Z" style="fill-rule:nonzero;"/>
            </g>
            <g transform="matrix(1,0,0,1,454.7858,502.5095)">
                <path d="M0,106.489L-38.136,106.489C-38.65,118.319 -39.165,130.149 -39.679,141.979L-0.926,141.979C-0.617,130.149 -0.309,118.319 0,106.489ZM-56.283,88.739L38.301,88.739C38.249,94.656 38.198,100.572 38.146,106.489L19.073,106.489C18.764,124.236 18.456,141.982 18.147,159.729L-59.987,159.729C-58.752,136.066 -57.517,112.402 -56.283,88.739ZM3.704,-35.49L-31.963,-35.49C-32.477,-23.66 -32.992,-11.83 -33.506,-0L2.778,-0C3.087,-11.83 3.395,-23.66 3.704,-35.49ZM20.616,17.75L-52.579,17.75C-51.344,-5.914 -50.11,-29.577 -48.875,-53.24L21.851,-53.24C21.44,-29.577 21.028,-5.914 20.616,17.75ZM-36.592,70.989L-17.828,70.989C-17.622,65.076 -17.417,59.162 -17.211,53.249L-35.821,53.249C-36.078,59.162 -36.335,65.076 -36.592,70.989ZM-16.594,35.499C-16.799,41.416 -17.005,47.333 -17.211,53.249L1.389,53.249C1.543,47.333 1.698,41.416 1.852,35.499L-16.594,35.499ZM57.209,35.499L75.665,35.499C75.613,29.583 75.562,23.666 75.511,17.75C75.459,11.833 75.408,5.916 75.356,-0L39.072,-0C39.021,5.916 38.969,11.833 38.918,17.75L57.209,17.75L57.209,35.499ZM75.202,-17.74C75.151,-23.657 75.099,-29.574 75.048,-35.49L57.209,-35.49L57.209,-53.24L39.535,-53.24C39.432,-41.407 39.329,-29.574 39.226,-17.74L75.202,-17.74ZM57.209,124.229L57.209,141.979L95.972,141.979C95.869,136.062 95.766,130.146 95.664,124.229L57.209,124.229ZM94.12,35.499C94.223,41.416 94.326,47.333 94.429,53.249L113.039,53.249C112.885,47.333 112.731,41.416 112.576,35.499L94.12,35.499ZM114.428,106.489L95.355,106.489C95.458,112.403 95.561,118.316 95.664,124.229L114.891,124.229C114.737,118.316 114.583,112.403 114.428,106.489ZM96.281,159.729L174.415,159.729C174.106,153.812 173.798,147.896 173.489,141.979L95.972,141.979C96.075,147.896 96.178,153.812 96.281,159.729ZM146.391,-35.49L110.724,-35.49C111.033,-23.66 111.341,-11.83 111.65,-0L147.934,-0C147.42,-11.83 146.906,-23.66 146.391,-35.49ZM163.304,-53.24C164.538,-29.577 165.773,-5.914 167.007,17.75L93.812,17.75C93.4,-5.914 92.989,-29.577 92.577,-53.24L163.304,-53.24ZM151.021,70.989L132.256,70.989C132.051,65.076 131.845,59.162 131.639,53.249L113.039,53.249C113.348,65.079 113.656,76.909 113.965,88.739L151.792,88.739C152.05,94.656 152.307,100.572 152.564,106.489L171.637,106.489C170.403,82.826 169.168,59.163 167.933,35.499L149.478,35.499C149.992,47.329 150.506,59.159 151.021,70.989ZM94.738,70.989L75.974,70.989C76.025,76.906 76.076,82.823 76.128,88.739L57.209,88.739L57.209,106.489L95.355,106.489C95.252,100.572 95.149,94.656 95.046,88.739C94.943,82.823 94.841,76.906 94.738,70.989ZM57.209,70.989L57.209,88.739L38.301,88.739C38.352,82.823 38.404,76.906 38.455,70.989L0.926,70.989C1.08,65.076 1.235,59.162 1.389,53.249L19.999,53.249C20.102,47.333 20.205,41.416 20.308,35.499L38.764,35.499C38.712,41.416 38.661,47.333 38.609,53.249L75.819,53.249C75.871,59.162 75.922,65.076 75.974,70.989L57.209,70.989Z" style="fill:none;fill-rule:nonzero;stroke:black;stroke-width:1px;"/>
            </g>
        </g>
    </g>
    <defs>
        <linearGradient id="_Linear1" x1="0" y1="0" x2="1" y2="0" gradientUnits="userSpaceOnUse" gradientTransform="matrix(0,1,1,0,0.5,-0.5)"><stop offset="0" style="stop-color:rgb(25,96,210);stop-opacity:1"/><stop offset="1" style="stop-color:rgb(103,160,251);stop-opacity:1"/></linearGradient>
        <linearGradient id="_Linear2" x1="0" y1="0" x2="1" y2="0" gradientUnits="userSpaceOnUse" gradientTransform="matrix(1,0,0,-1,0,-0.000002)"><stop offset="0" style="stop-color:rgb(134,150,183);stop-opacity:1"/><stop offset="0.51" style="stop-color:rgb(86,108,155);stop-opacity:1"/><stop offset="0.99" style="stop-color:rgb(134,150,183);stop-opacity:1"/><stop offset="1" style="stop-color:rgb(134,150,183);stop-opacity:1"/></linearGradient>
        <linearGradient id="_Linear3" x1="0" y1="0" x2="1" y2="0" gradientUnits="userSpaceOnUse" gradientTransform="matrix(1,0,0,-1,0,0.000007)"><stop offset="0" style="stop-color:black;stop-opacity:1"/><stop offset="0.51" style="stop-color:black;stop-opacity:1"/><stop offset="0.86" style="stop-color:rgb(74,93,133);stop-opacity:1"/><stop offset="0.91" style="stop-color:rgb(102,128,184);stop-opacity:1"/><stop offset="1" style="stop-color:rgb(102,128,184);stop-opacity:1"/></linearGradient>
        <linearGradient id="_Linear4" x1="0" y1="0" x2="1" y2="0" gradientUnits="userSpaceOnUse" gradientTransform="matrix(1,0,0,-1,0,0)"><stop offset="0" style="stop-color:black;stop-opacity:1"/><stop offset="0.01" style="stop-color:black;stop-opacity:1"/><stop offset="0.78" style="stop-color:rgb(25,32,45);stop-opacity:1"/><stop offset="0.97" style="stop-color:rgb(73,92,132);stop-opacity:1"/><stop offset="1" style="stop-color:rgb(86,108,155);stop-opacity:1"/></linearGradient>
        <linearGradient id="_Linear5" x1="0" y1="0" x2="1" y2="0" gradientUnits="userSpaceOnUse" gradientTransform="matrix(1,0,0,-1,0,0)"><stop offset="0" style="stop-color:black;stop-opacity:1"/><stop offset="0.01" style="stop-color:black;stop-opacity:1"/><stop offset="0.78" style="stop-color:rgb(25,32,45);stop-opacity:1"/><stop offset="0.97" style="stop-color:rgb(73,92,132);stop-opacity:1"/><stop offset="1" style="stop-color:rgb(86,108,155);stop-opacity:1"/></linearGradient>
    </defs>
</svg>
